<?xml version="1.0" encoding="utf-8"?>
<!-- Generator: Adobe Illustrator 28.0.0, SVG Export Plug-In . SVG Version: 6.00 Build 0)  -->
<svg version="1.1" id="图层_1" xmlns="http://www.w3.org/2000/svg" xmlns:xlink="http://www.w3.org/1999/xlink" x="0px" y="0px"
	 viewBox="0 0 204.6 226.8" style="enable-background:new 0 0 204.6 226.8;" xml:space="preserve">
<style type="text/css">
	.st0{fill:#0A7C7B;stroke:#0A7C7B;stroke-miterlimit:10;}
	.st1{fill:#FFFFFF;}
	.st2{fill:#0A7C7B;}
	.st3{fill:#FFFFFF;stroke:#FFFFFF;stroke-miterlimit:10;}
	.st4{fill:#FFFFFF;stroke:#FFFFFF;stroke-width:0.25;stroke-miterlimit:10;}
	.st5{fill:#FFFFFF;stroke:#FFFFFF;stroke-width:0.5;stroke-miterlimit:10;}
	.st6{fill:#FFFFFF;stroke:#0A7C7B;stroke-miterlimit:10;}
	.st7{fill:#0A7C7B;stroke:#FFFFFF;stroke-miterlimit:10;}
	.st8{fill:none;stroke:#FFFFFF;stroke-miterlimit:10;}
</style>
<path class="st0" d="M76.6,60c0,2.3-15.2,13.3-17.4,15.5c-7,7-13.7,14.3-19.9,22C21,120-13.1,163.8,6.3,193.4
	c8.6,13.2,25.7,18.2,40.2,21.3c22.9,4.9,45.5,5.5,68.7,5.4c16.5-0.2,33-2.5,48.9-7c18.3-5.3,35.1-15.8,39.2-35.7
	c3.9-19.1-6.5-36.1-23.9-61.6C165,94.7,147.7,75.7,128,59.4c-0.2,2-0.4,4-0.5,6.1c-0.1,1.7-0.2,3.3-0.2,4.9L127,142
	c-0.4,10-0.4,20.1-8.8,27.2c-10,8.3-25.1,5.8-34.8-1.6c-9-6.9-6.9-18.4-6.9-28.3l0.1-41.2C76.6,85.4,76.6,72.7,76.6,60z"/>
<path class="st1" d="M46.9,146.6c-1.7-2.3-3.2-4.4-4.7-6.5c-1.9-2.3-2.4-5.4-1.5-8.2c0.5-1.6,1.4-3,2.7-4c0.4-0.3,0.6-0.8,0.4-1.3
	c-1.2-3.5,0-7.3,3-9.4c2.2-1.2,4.4-2.3,6.7-3.3s4.8-2,7-3.3c1.3-0.9,2.5-2,3.5-3.2v1.2c-0.7,3.7-3.3,6.7-6.8,8
	c-3.2,1.2-6.4,2.4-9.6,3.7c-2.1,0.9-2.9,1-1.1,3.7c1,1.5,1.1,1.5,2.8,0.8c2.5-1,5-2,7.4-3.2c1.5-0.7,2.8-1.9,3.6-3.3
	c0.2-0.2,0.4-0.4,0.6-0.4c-0.4,2.8-1,5.5-3.4,7.1c-2.4,1.4-4.8,2.7-7.3,3.9c0.6,0.8,1.3,1.8,2.1,2.8c3.1,3.9,3.2,8,1.2,12.4
	c-0.6,1-1.1,2.1-1.5,3.2c-0.3,1.1-0.2,2.3-0.4,3.4c-0.7,3.3-1.6,6.7-4.6,8.7c-1.8,1.1-3.8,2-5.8,2.7c-0.4,0.2-0.8,0.3-1.2,0.4
	c0.4,0.6,0.8,1.1,1.2,1.6c0.9,1.4,1.9,2.8,2.8,4.3c1.6,2.9,0.9,5.9-0.2,8.8c-0.2,0.2-0.4,0.4-0.6,0.5c-0.2-0.2-0.5-0.4-0.4-0.6
	c0.1-3.5-1.8-6.1-3.7-8.8l-2.7-3.7c-0.1-0.1-0.2-0.3-0.3-0.4c-1.1,0.4-2.1,0.7-3.2,1.2c-0.7,0.3-0.5,1-0.2,1.5
	c0.2,0.5,0.4,1,0.7,1.4c1.9,2.6,3.8,5.2,5.8,7.7c2.7,3.1,3.3,7.5,1.7,11.3c-0.1,0.4-0.6,0.6-0.9,0.9c-0.2-0.3-0.3-0.6-0.3-1
	c-0.2-2.6-1.1-5-2.7-7c-1.5-2.2-3.2-4.4-4.7-6.5c-3-3.7-2.4-9.1,1.3-12.1l0,0c0.4-0.3,0.6-0.8,0.4-1.2l0,0c-1.2-3.4,0-7.2,2.9-9.4
	c1.6-1,3.2-1.8,4.9-2.5C43.4,147.9,45.1,147.3,46.9,146.6z M48.9,149.9c-1.4,0.6-2.6,1-3.8,1.5c-2.8,1.1-5.6,2.1-8.4,3.3
	c-1.4,0.6-1.6,1.3-0.8,2.6c0.3,0.6,0.8,1,1.1,1.6c0.2,0.4,0.7,0.6,1.1,0.4h0.1c2.2-0.9,4.5-1.7,6.6-2.7c1.4-0.7,2.8-1.6,4-2.6
	c0.4-0.3,0.6-0.8,0.6-1.3C49.4,151.8,49.2,150.8,48.9,149.9L48.9,149.9z M50.7,144.5c2-1,2.4-1.7,1.6-3.9c-0.3-1-0.7-2.1-1.3-3
	c-1.3-2-2.7-3.9-4-5.8c-1.1-1.6-1.2-1.6-3-0.7s-2,1.5-0.9,3C45.5,137.6,48.1,141,50.7,144.5L50.7,144.5z M40.3,185.9
	c1.1-2.6,0.7-5.6-1-7.8l-7.8-10.8h-0.3c-0.1,0.7-0.1,1.4-0.1,2.1c0.4,2.5,1.9,4.3,3.3,6.3C36.7,178.9,39.4,181.7,40.3,185.9
	L40.3,185.9z M49.9,144.9l-8.5-11.7c-0.2,0.4-0.3,0.9-0.3,1.3c0,1.8,0.7,3.5,1.8,4.9c1.2,1.8,2.5,3.5,3.8,5.3s1.2,1.7,3,0.5
	C49.6,145.2,49.7,145.1,49.9,144.9L49.9,144.9z M36.8,164.1c0.9,1.2,1.8,2.4,2.6,3.6c1.8,2.2,3.2,4.8,4.1,7.5
	c0.9-2.4,0.5-5.1-0.9-7.3c-0.7-1.1-1.5-2.2-2.3-3.2c-1.4-1.9-1.4-1.8-3.5-0.9C36.9,164,36.8,164,36.8,164.1L36.8,164.1z M53.4,141.2
	h0.4c0.1-1.5,0.1-2.9-0.1-4.4c-0.6-3-2.7-5.1-4.4-7.4c-0.2-0.2-0.4-0.2-0.6-0.2c-0.6,0.2-1.2,0.5-1.9,0.8
	C49.1,133.7,52.4,136.8,53.4,141.2z M44.9,126.8l1.8-0.9l-2-3.1C43.9,123.9,43.9,125.2,44.9,126.8z M34.7,156.8
	c-0.8,1.3-0.7,2.9,0.3,4l1.7-0.9L34.7,156.8z M51,148.5c-1.7,1-1.7,1.1-0.5,3.4L51,148.5z"/>
<path class="st1" d="M154.5,153.6c0.4-2.4,2.4-4.3,4.8-4.5c2-0.3,3.9,0.7,4.8,2.5c1.3,2.3,0.9,4.5-0.9,6.5c3-0.4,5.3,0.9,6.1,3.4
	c0.9,2.7-0.5,5.7-3.3,6.6c-1.9,0.6-4,0.1-5.4-1.3c-1.9-2-1.8-4.5,0.1-7.4c-1.8,0.3-3.6-0.2-4.9-1.5c-0.5,2.9-3.3,4.9-6.3,4.4
	c-0.4-0.1-0.9-0.2-1.3-0.4c1.5,2.7,1.2,5.1-0.9,7.2c3.3,2.8,4,5.7,1.9,8.2c-1.8,2.2-5,2.5-7.2,0.7l0,0c-2.5-2-2.5-5,0-8.2
	c-1.7-0.7-2.9-2.3-3.1-4.2c-0.1-1,0.1-2.1,0.6-3c1.2-2.4,3.6-3.2,6.8-2.3c-1.4-2.7-1.2-5.2,1.3-7.2
	C149.5,151.6,151.8,151.8,154.5,153.6z"/>
<path class="st1" d="M186.2,154.6c2.1,3.5,1.8,6.3-0.8,8.1c-2.2,1.6-5.4,1.1-7-1.1c-1.9-2.5-1.3-5.3,1.6-7.8
	c-1.5-1.7-1.9-4.2-0.9-6.3c-1.6,0.1-3.2-0.4-4.4-1.5c-1.1-1-1.7-2.4-1.6-3.9c-1.2,0.5-2.5,0.9-3.8,1.1c-1.3-0.2-2.6-0.6-3.8-1.1
	c0.1,1.5-0.5,3-1.7,3.9c-0.9,0.7-2,1.2-3.1,1.4c-2.3,0.3-4.5-1.1-5.3-3.3c-0.9-2.1-0.2-4.6,1.6-6c2-1.6,4.3-1.5,7,0.4
	c0.3-3.7,2.3-5.7,5.5-5.6c2.9,0.1,4.9,2.3,5,5.6c2.5-1.8,4.7-2,6.6-0.6c2.4,1.7,2.8,4.1,1.8,6.9c2.7,0,4.8,0.9,5.6,3.6
	C189.4,150.8,188.4,153.5,186.2,154.6z"/>
<path class="st1" d="M59.6,205.2h7.8c1.6,0,1.6,0,1.6,1.5v1.6H54.9c-0.1-1.7-0.2-3.2,1.1-4.7c2.4-2.7,4.6-5.7,6.9-8.5
	c0.2-0.2,0.3-0.5,0.7-0.9h-6.2c-1.7,0-1.7,0-1.7-1.7s0-1.5,1.6-1.5h10.3c0.9,0,1.1,0.3,1.2,1.2c0.1,1.1-0.3,2.2-1,3
	c-2.6,3.1-5.2,6.4-7.8,9.5C59.8,204.9,59.7,205,59.6,205.2z"/>
<path class="st1" d="M138.3,196.7c3.9-2.8,8.2-0.5,8.6,3.5c0.2,1.4,0.1,2.9-0.2,4.3c-0.9,3.9-5.3,5.7-8.7,2.5l-0.2,1.3h-3.1V191
	c1-0.1,1.9-0.1,2.9,0c0.3,0,0.6,0.6,0.6,1C138.3,193.5,138.3,195,138.3,196.7z M143.5,202.2c-0.1-0.7-0.2-1.3-0.3-2
	c-0.2-1-1.1-1.8-2.2-1.8c-1.1-0.2-2.2,0.5-2.4,1.6c-0.6,1.4-0.5,3,0.2,4.4c0.4,0.9,1.3,1.5,2.3,1.5s1.8-0.7,2-1.7
	C143.3,203.4,143.4,202.7,143.5,202.2z"/>
<path class="st1" d="M74.4,190.9v6c1.2-1.1,2.7-1.6,4.3-1.5c2.3,0.3,3.6,1.5,3.7,3.8c0.1,2.9,0,5.9,0,9h-3.1c-0.2,0-0.4-0.6-0.4-0.9
	v-6.9c0-1.5-0.4-2.1-1.5-2.2c-1.2-0.2-2.4,0.6-2.7,1.8v0.2c-0.1,1-0.2,1.9-0.2,2.9v5.2h-3c-0.2,0-0.5-0.5-0.5-0.8c-0.1-1,0-2,0-3
	v-12.4c0-0.9,0.3-1.4,1.2-1.3C72.9,191,73.7,191,74.4,190.9z"/>
<path class="st1" d="M132.2,208.3c-1.1-0.3-2.7,0.9-3.7-1c-1.3,1-2.9,1.5-4.5,1.2c-2-0.2-3.6-1.9-3.4-4c0.1-1.6,1.3-2.9,2.8-3.3
	c1.3-0.4,2.6-0.6,3.9-0.9c0.5-0.1,1.2-0.2,0.9-0.9c-0.2-0.5-0.6-0.9-1.1-1.1c-1.1-0.2-2.2-0.2-2.8,1c-0.2,0.1-0.4,0.2-0.6,0.3
	c-0.3,0-0.5,0-0.8-0.1c-0.6-0.2-1.2-0.4-1.9-0.7c0.2-0.7,0.6-1.4,1-2c1.3-1.5,3.1-1.5,4.9-1.6c0.5,0,1.1,0.1,1.6,0.2
	c1.9,0.2,3.4,1.9,3.3,3.8c0.1,1.5,0,2.9,0,4.4S132.1,206.7,132.2,208.3z M128.1,202.6c-1,0.2-2,0.5-3,0.8c-0.5,0.3-0.8,0.8-0.9,1.4
	c0.2,0.6,0.6,1,1.2,1.2C126.8,206.3,128.6,205.2,128.1,202.6L128.1,202.6z"/>
<path class="st1" d="M93.5,195.8c3.6-0.4,3.6-0.4,3.6,2.9v8.4c0,1-0.3,1.3-1.3,1.2h-2.1l-0.2-1.4l-0.6,0.5c-1.5,1.2-3.5,1.5-5.2,0.8
	c-1.8-0.7-2.3-2.4-2.3-4.1c-0.1-2.5,0-5.1,0-7.6c0-0.6,0.2-0.8,0.8-0.9c2.8-0.2,2.8-0.2,2.8,2.6v5.2c0,1.4,0.5,2.1,1.6,2.2
	c1.2,0.3,2.4-0.5,2.7-1.7c0,0,0,0,0-0.1v-0.1c0.1-0.6,0.2-1.3,0.2-1.9V195.8z"/>
<path class="st1" d="M106.8,199.7v-7.3c0-1,0.3-1.4,1.3-1.4c3.2,0,2.5-0.2,2.6,2.5v10.6c0,0.8,0.3,1.1,1.1,1.1h6.3
	c1,0,1.4,0.3,1.3,1.3v1.1c0,0.6-0.3,0.8-0.9,0.8h-10.8c-0.8,0-0.9-0.5-0.9-1V199.7z"/>
<path class="st1" d="M179.8,165.7c0,2.8-2.3,5.1-5.1,5.1l0,0c-2.9,0-5.2-2.3-5.2-5.2s2.3-5.2,5.2-5.2c2.8,0,5.1,2.3,5.1,5.1
	C179.8,165.6,179.8,165.7,179.8,165.7z"/>
<path class="st2" d="M48.9,149.9c0.3,0.9,0.5,1.8,0.6,2.8c0,0.5-0.2,1-0.6,1.3c-1.2,1-2.6,1.9-4,2.6c-2.1,1-4.4,1.8-6.6,2.7
	c-0.4,0.2-0.9,0.1-1.1-0.3l0,0v-0.1c-0.3-0.6-0.8-1-1.1-1.6c-0.8-1.3-0.6-2.1,0.8-2.6l8.4-3.3C46.4,151,47.5,150.5,48.9,149.9z"/>
<path class="st0" d="M50.6,144.4c-2.6-3.4-5.1-6.8-7.6-10.3c-1.1-1.6-0.9-2.2,0.9-3s1.9-0.9,3,0.7c1.4,1.9,2.8,3.8,4,5.8
	c0.6,0.9,1,1.9,1.3,3C53,142.7,52.7,143.4,50.6,144.4z"/>
<path class="st2" d="M40.3,185.9c-0.9-4.2-3.6-7-5.9-10.2c-1.4-2-2.9-3.8-3.3-6.3c-0.1-0.7,0-1.4,0.1-2.1h0.3
	c2.6,3.6,5.3,7.1,7.8,10.8C41,180.4,41.4,183.4,40.3,185.9z"/>
<path class="st2" d="M49.9,144.9c-0.2,0.3-0.2,0.3-0.3,0.3c-1.8,1.2-1.8,1.2-3-0.5s-2.6-3.5-3.8-5.3c-1.1-1.4-1.7-3.1-1.8-4.9
	c0.1-0.4,0.2-0.9,0.3-1.3L49.9,144.9z"/>
<path class="st2" d="M36.7,164.1l0.2-0.2c2.1-1,2.1-1,3.5,0.9c0.8,1,1.6,2.1,2.3,3.2c1.4,2.2,1.7,4.9,0.9,7.3
	c-0.9-2.7-2.3-5.3-4.1-7.5C38.5,166.5,37.6,165.3,36.7,164.1z"/>
<path class="st2" d="M53.4,141.2c-1-4.4-4.2-7.4-6.6-11.1c0.7-0.3,1.3-0.6,1.9-0.8c0.2,0,0.5,0,0.6,0.2c1.7,2.3,3.9,4.4,4.4,7.4
	c0.2,1.5,0.2,2.9,0.1,4.4L53.4,141.2z"/>
<path class="st0" d="M44.9,126.8c-0.9-1.6-1-2.9-0.3-4l2,3.1L44.9,126.8z"/>
<path class="st0" d="M34.6,156.8l2,3.1l-1.7,0.9C33.9,159.3,33.8,157.8,34.6,156.8z"/>
<path class="st0" d="M51,148.5l-0.5,3.4C49.3,149.6,49.3,149.4,51,148.5z"/>
<path class="st2" d="M143.5,202.2c-0.1,0.6-0.2,1.3-0.4,1.9c-0.2,0.9-1,1.6-2,1.7c-1,0.1-2-0.5-2.3-1.5c-0.7-1.4-0.7-3-0.2-4.4
	c0.3-1,1.3-1.7,2.4-1.6c1.1,0,2,0.8,2.2,1.8L143.5,202.2z"/>
<path class="st2" d="M128.1,202.6c0.6,2.7-1.2,3.7-2.6,3.4c-0.6-0.2-1-0.6-1.2-1.2c0-0.6,0.4-1.1,0.9-1.4
	C126.1,203.1,127.1,202.8,128.1,202.6z"/>
<path class="st1" d="M47.1,147.6c-1.7-2.3-3.2-4.4-4.7-6.5c-1.8-2.5-2.6-5.2-1.5-8.2c0.5-1.6,1.4-2.9,2.7-4c0.4-0.3,0.6-0.8,0.4-1.3
	c-1.2-3.4,0-7.3,3-9.4c2.2-1.2,4.4-2.3,6.7-3.3c2.3-1.1,4.8-2,7-3.3c1.3-0.9,2.4-2,3.5-3.2c0,0.4,0,0.8,0,1.2
	c-0.7,3.7-3.2,6.8-6.8,8c-3.2,1.2-6.4,2.4-9.6,3.7c-2.1,0.9-2.9,1-1.1,3.7c1,1.5,1.1,1.5,2.8,0.8c2.5-1,5-2,7.4-3.2
	c1.5-0.7,2.7-1.8,3.6-3.3c0.1-0.2,0.3-0.3,0.7-0.7c-0.6,7-5.3,9.4-11,11c0.9,1.2,1.6,2.2,2.4,3.1c3.1,3.9,3.2,8,1.2,12.4
	c-0.6,1-1.1,2.1-1.5,3.2c-0.3,1.1-0.2,2.3-0.4,3.4c-0.7,3.3-1.6,6.7-4.6,8.7c-1.8,1.1-3.8,2-5.8,2.8c-0.3,0.1-0.7,0.3-1.2,0.4
	c0.4,0.6,0.8,1.1,1.2,1.6c0.9,1.4,2,2.8,2.8,4.3c1.6,2.9,0.9,5.9-0.1,8.8c-0.1,0.2-0.4,0.4-0.6,0.5c-0.2-0.2-0.5-0.4-0.4-0.6
	c0.1-3.5-1.8-6.1-3.7-8.8l-2.7-3.7c-0.1-0.1-0.3-0.4-0.3-0.4c-1.1,0.4-2.1,0.7-3.2,1.2c-0.7,0.3-0.4,1-0.2,1.5s0.5,1,0.8,1.4
	c1.9,2.6,3.8,5.2,5.8,7.7c2.6,3.1,3.2,7.5,1.6,11.2c-0.1,0.4-0.6,0.6-0.9,0.9c-0.2-0.3-0.3-0.7-0.3-1c-0.2-2.6-1.1-5-2.7-7
	c-1.6-2.2-3.2-4.3-4.7-6.5c-1.7-2.4-2.5-5-1.5-7.9c0.5-1.6,1.5-3.1,2.8-4.2c0.4-0.2,0.6-0.8,0.4-1.2l0,0c-1.2-3.4,0-7.2,2.9-9.4
	c1.6-1,3.2-1.8,4.9-2.5C43.5,148.9,45.2,148.3,47.1,147.6z M49.1,151c-1.4,0.6-2.5,1-3.6,1.5c-2.9,1.1-5.8,2.2-8.6,3.3
	c-1.3,0.5-1.5,1.3-0.8,2.5c0.4,0.6,0.8,1.1,1.2,1.7c0.2,0.4,0.7,0.6,1.1,0.4h0.1c2.2-0.9,4.5-1.7,6.6-2.7c1.4-0.7,2.8-1.6,4-2.6
	c0.4-0.3,0.6-0.8,0.7-1.3C49.6,152.8,49.3,151.9,49.1,151L49.1,151z M50.8,145.5c2-1,2.4-1.7,1.6-3.9c-0.3-1.1-0.7-2.1-1.3-3
	c-1.3-2-2.7-3.9-4-5.8c-1.1-1.6-1.2-1.6-3-0.7s-2,1.5-0.9,3C45.7,138.6,48.2,142,50.8,145.5L50.8,145.5z M40.5,186.9
	c1.1-2.6,0.7-5.6-1-7.8c-2.6-3.6-5.2-7.2-7.8-10.8h-0.3c-0.1,0.7-0.1,1.4-0.1,2.1c0.4,2.5,1.9,4.3,3.3,6.3
	C36.8,179.9,39.5,182.8,40.5,186.9L40.5,186.9z M50,145.9l-8.5-11.6c-0.1,0.4-0.2,0.8-0.3,1.3c0,1.8,0.7,3.5,1.8,4.9
	c1.2,1.8,2.5,3.5,3.8,5.3s1.2,1.7,3,0.5C49.8,146.2,49.8,146.2,50,145.9L50,145.9z M36.9,165.1c0.9,1.2,1.8,2.4,2.6,3.6
	c0.9,1.2,1.7,2.4,2.4,3.6c0.7,1.3,1.1,2.6,1.7,3.9c0.9-2.4,0.5-5.1-0.9-7.3c-0.7-1.1-1.5-2.2-2.3-3.2c-1.4-1.9-1.4-1.8-3.5-0.9
	C37,164.9,37,165,36.9,165.1z M53.5,142.2h0.4c0.1-1.5,0.1-2.9,0-4.4c-0.6-3-2.7-5.1-4.4-7.4c-0.2-0.2-0.4-0.2-0.6-0.2
	c-0.6,0.2-1.2,0.5-1.9,0.8C49.3,134.8,52.5,137.8,53.5,142.2z M45,127.8l1.8-0.9l-2-3.1C44,124.9,44.1,126.3,45,127.8L45,127.8z
	 M34.8,157.8c-0.8,1.1-0.7,2.6,0.3,4l1.8-0.9L34.8,157.8z M51.1,149.5c-1.7,1-1.7,1.1-0.5,3.4L51.1,149.5z"/>
<path class="st1" d="M83.3,95.5v-55c0-2,0-2.1-2.1-2c-1.6,0.2-3.2-0.2-4.5-1.2c-2.2-2.1-2.2-5.6-0.1-7.7c1.1-1.1,2.7-1.8,4.2-1.7
	c13.7,0.1,27.4,0,41.1,0.1c4.2,0,7.1,4.5,5.1,8c-0.7,1.5-2.2,2.4-3.9,2.4H121c-1.3,0-1.5,0.2-1.5,1.4v91.3c0,6.1-0.1,12.1,0,18.2
	c0.2,4.9-1.2,9.7-4,13.7c-3.9,5.8-9.4,8.4-16.5,7.7s-11.3-5-14.2-11.1c-1.3-2.8-1.9-5.9-1.9-9c0-15.2,0.1-30.5,0.2-45.7
	C83.3,101.7,83.3,98.6,83.3,95.5z M117.5,67.5L117.5,67.5V40.6c0-1.9-0.1-2.1-2-2.1H87.1c-1.5,0-1.7,0.2-1.7,1.8
	c0,9.3,0.1,18.7,0.1,28c0,4.5,0,8.9-0.1,13.4c-0.1,0.9,0.5,1.8,1.4,2.1c6,2.5,12,5.1,18,7.6c3.6,1.5,7.3,2.9,10.9,4.4
	c1.5,0.6,1.8,0.4,1.8-1.1L117.5,67.5z M110.8,146c0.6-0.1,1.3-0.2,1.9-0.4c2.1-1.1,4-3.8,2.8-6.4s-4-4.1-6.6-2.9
	c-0.9,0.6-2.2,0.4-2.9-0.5l-0.3-0.3c-1.3-0.8-2.1-1.7-1.5-3.4c0.1-0.2-0.1-0.5,0-0.8c0.6-1.4-0.5-2.7,0.2-4.2
	c1.3-2.8,2.1-5.9,3.3-8.9c0.3-0.5,0.7-0.9,1.2-1.2c1.2-0.4,2.2-1.1,2.9-2.1c1.3-1.9,1-4.5-0.7-6.1c-1.8-1.7-4.5-1.8-6.4-0.4
	c-2.1,1.6-2.7,3.9-1.5,5.9c0.5,0.7,1.1,1.3,1.8,1.9c0.2,0.3,0.6,0.8,0.5,1l-3,8.4c-0.2,0.4-0.5,0.7-0.9,0.8c-2,0.5-4.1-0.4-5.2-2.2
	c-0.1-0.1-0.1-0.3-0.2-0.4c-0.6-0.7-0.8-1.7-0.4-2.5c0.7-1.9-0.1-4-2-4.8c-1.7-0.8-3.7-0.4-4.9,1c-1.5,1.6-1.4,4.1,0.2,5.7
	c0.9,0.8,2.1,1.2,3.3,1c0.9-0.2,1.9,0.2,2.4,1c0.2,0.3,0.4,0.6,0.7,0.9c0.6,0.6,0.5,1.1-0.2,1.7c-1.7,1.2-2.3,3.5-1.3,5.4
	c0.6,1.3,0.6,2.8,0,4.1c-0.3,0.7-0.5,1.4-0.6,2.1c-0.3,1.6-0.9,2.8-2.9,3.1s-3.4,2.8-3.1,4.9c0.4,2.5,2.7,4.3,5.2,4
	c2.5-0.4,4.3-2.7,4-5.2c-0.1-1-0.6-2-1.4-2.7c-0.3-0.4-0.5-1-0.4-1.5c0.4-1.7,1-3.3,1.5-4.9c0.2-0.6,0.4-0.7,1-0.5
	c1.4,0.4,2.9,0.2,4.1-0.5c0.5-0.4,1.2-0.4,1.7,0.1c0.4,0.3,0.8,0.6,1.2,0.8c1.1,0.5,1.6,1.7,1.3,2.8
	C105,142.7,107.9,146.3,110.8,146z M101.5,36.2h7.9c4.5,0,8.9,0.1,13.4,0.1c1.3,0.1,2.5-0.8,2.8-2.1c0.6-2.4-1-4.2-3.8-4.2
	l-39.5,0.1c-0.8,0-1.5,0-2.3,0.1c-1.5,0.2-2.6,1.4-2.6,2.9c-0.2,1.5,0.8,2.9,2.3,3.1c0.1,0,0.2,0,0.2,0H101.5z M95.9,158.3
	c-0.1,3.5,2.6,6.4,6.1,6.5l0,0h0.2c3.5-0.1,6.4-3,6.5-6.5s-2.7-6.5-6.2-6.6h-0.4c-3.5,0.1-6.3,2.9-6.2,6.4
	C95.9,158.2,95.9,158.3,95.9,158.3z M100.3,101.4c0.2-3.6-2.5-6.7-6.1-7c-3.6-0.2-6.7,2.5-7,6.1c0,0.1,0,0.1,0,0.2v0.4
	c0.1,3.6,2.9,6.4,6.5,6.6C97.2,107.7,100.1,105,100.3,101.4z"/>
<path class="st2" d="M117.5,67.5v27.2c0,1.6-0.4,1.8-1.8,1.1c-3.6-1.5-7.3-2.9-10.9-4.4c-6-2.5-12-5.1-18-7.6
	c-0.9-0.3-1.5-1.2-1.4-2.1c0.1-4.5,0.1-8.9,0.1-13.4c0-9.3-0.1-18.7-0.1-28c0-1.6,0.2-1.8,1.7-1.8h28.4c1.9,0,2,0.1,2,2.1
	L117.5,67.5L117.5,67.5z M95.2,61.9c2,0,3.7-1.6,3.7-3.7l0,0c-0.1-2-1.7-3.6-3.7-3.7c-2,0.1-3.5,1.6-3.6,3.6
	c-0.1,1.9,1.3,3.6,3.2,3.7c0,0,0,0,0.1,0C95,61.8,95.1,61.9,95.2,61.9L95.2,61.9z M104.8,60.1c0,2.3,1.3,3.8,3.5,3.7
	c2.4-0.1,3.5-1.2,3.5-3.5c0.1-1.8-1.2-3.4-3-3.5h-0.5c-1.7-0.1-3.3,1.2-3.4,2.9c0,0,0,0,0,0.1C104.8,59.8,104.8,59.9,104.8,60.1z
	 M94.1,73c0,0.9,0.5,1.4,1.2,1.2c0.5-0.2,0.9-0.7,1.1-1.2c0.1-0.5-0.2-1-0.7-1.1c-0.1,0-0.3,0-0.4,0C94.7,71.8,94.2,72.3,94.1,73z"
	/>
<path class="st2" d="M110.8,146c-2.9,0.3-5.8-3.3-5.3-6.1c0.3-1.1-0.2-2.3-1.3-2.8c-0.4-0.2-0.8-0.5-1.2-0.8
	c-0.5-0.4-1.2-0.5-1.7-0.1c-1.2,0.7-2.7,0.9-4.1,0.5c-0.6-0.2-0.9-0.1-1,0.5c-0.5,1.6-1,3.3-1.5,4.9c-0.1,0.5,0.1,1.1,0.4,1.5
	c1.4,1.3,1.8,3.3,1.1,5.1c-0.9,2.4-3.6,3.6-5.9,2.7c-1.6-0.6-2.8-2.1-3-3.9c-0.2-2.2,1-4.5,3.1-4.9s2.5-1.5,2.9-3.1
	c0.2-0.7,0.4-1.4,0.6-2.1c0.6-1.3,0.6-2.8,0-4.1c-0.9-1.9-0.4-4.2,1.3-5.4c0.7-0.6,0.8-1,0.2-1.7c-0.2-0.3-0.5-0.6-0.7-0.9
	c-0.5-0.8-1.5-1.2-2.4-1c-1.8,0.4-3.5-0.5-4.2-2.2c-0.8-1.5-0.5-3.3,0.7-4.5c1.2-1.4,3.2-1.8,4.9-1c1.8,0.8,2.7,2.9,2,4.8
	c-0.3,0.8-0.2,1.8,0.4,2.5c0.1,0.1,0.1,0.3,0.2,0.4c1,1.8,3.2,2.8,5.2,2.2c0.4-0.1,0.7-0.4,0.9-0.8l3-8.4c0.1-0.3-0.2-0.7-0.5-1
	c-0.7-0.6-1.3-1.2-1.8-2c-1.2-2-0.5-4.7,1.5-5.9c1.9-1.5,4.7-1.3,6.4,0.4c1.7,1.6,2,4.2,0.7,6.1c-0.7,1-1.7,1.7-2.9,2.1
	c-0.5,0.2-1,0.7-1.2,1.2c-1.1,3-1.9,6-3.3,8.9c-0.7,1.5,0.4,2.9-0.2,4.2c-0.1,0.2,0.1,0.5,0,0.8c-0.6,1.6,0.2,2.6,1.5,3.4l0.3,0.3
	c0.7,0.9,1.9,1.1,2.9,0.5c2.6-1.2,5.4,0.2,6.6,2.9s-0.7,5.4-2.8,6.4C112,145.8,111.4,146,110.8,146z M107.9,140.1
	c-0.3,1.1,0.2,2.2,1.2,2.7c1.1,0.7,2.6,0.5,3.5-0.4c0.9-0.8,1-2.1,0.4-3.1c-0.8-1-2.2-1.2-3.3-0.5l1.6,0.1c0.7,0,1.2,0.6,1.2,1.3
	l0,0c0,0.6,0,1.5-0.4,1.8c-0.8,0.6-2,0.6-2.8,0C108.8,141.5,108.3,140.8,107.9,140.1L107.9,140.1z M93.4,145.7
	c-0.3,1,0.2,2.5-1.3,2.4s-0.6-1.4-0.8-2.2c-0.7,0.3-0.9,1.2-0.6,1.8c0,0,0,0.1,0.1,0.1c0,0.1,0.1,0.2,0.2,0.2
	c0.4,0.6,1.3,0.8,1.9,0.4l0.1-0.1C94,147.7,94.2,146.9,93.4,145.7L93.4,145.7z M93.3,120.5l-1.1-1c-0.2,0.4-0.6,0.7-0.6,1.1
	s0.5,0.5,0.7,0.8L93.3,120.5z M108.6,112.5l-1-1c-0.3,0.3-0.6,0.7-0.8,1.1c0.1,0.3,0.3,0.6,0.6,0.8
	C107.9,113.3,108.2,112.9,108.6,112.5L108.6,112.5z"/>
<path class="st2" d="M101.5,36.2H80.2c-1.5,0.1-2.8-1-2.9-2.5c0-0.1,0-0.2,0-0.2v-0.4c0-1.5,1.1-2.7,2.6-2.9
	c0.8-0.1,1.5-0.1,2.3-0.1l39.5-0.1c2.8,0,4.4,1.8,3.8,4.2c-0.2,1.3-1.5,2.2-2.8,2.1c-4.5,0-8.9-0.1-13.4-0.1H101.5z"/>
<path class="st2" d="M95.9,158.3c0-3.8,2.6-6.6,6.1-6.5c3.5-0.1,6.5,2.7,6.6,6.2v0.4c-0.1,3.5-3,6.4-6.5,6.5c-3.5,0-6.3-2.9-6.3-6.4
	C95.8,158.4,95.8,158.4,95.9,158.3z M100.9,161.1l0.1,0.3c0.2-0.2,0.5-0.4,0.5-0.7v-5.2c-0.1-0.3-0.4-0.5-0.7-0.6
	c-1.1,0.2-1.9,0.9-2.2,2c-0.4,1.2-0.2,2.5,0.5,3.5c-0.6-3.3,0.1-5,1.8-4.8L100.9,161.1z M103.5,154.8c0,2.3-0.4,4.3,0.1,6.3
	c0.4-1.9-0.6-3.9,1.1-5.6L103.5,154.8z M105.5,156.6h-0.3c0.1,1.1,0.1,2.3,0.2,3.4h0.1L105.5,156.6z"/>
<path class="st2" d="M100.3,101.5c-0.1,3.6-3.1,6.5-6.7,6.4s-6.5-3.1-6.4-6.7c0-3.6,2.9-6.6,6.5-6.6s6.6,2.9,6.6,6.5V101.5z
	 M93.3,97.3c-0.9,1.9-1.6,3.6-2.3,5.3c0,0.1,0.3,0.7,0.5,0.7c1.4,0,2.8,0,4.2-0.1c0.2,0,0.7-0.6,0.6-0.7
	C95.7,100.6,94.7,98.8,93.3,97.3L93.3,97.3z"/>
<path d="M95.2,61.8c-1.9,0.1-3.5-1.3-3.6-3.2c0-0.1,0-0.1,0-0.2V58c0-2,1.6-3.6,3.6-3.6c2,0.1,3.6,1.7,3.7,3.7
	C98.9,60.2,97.2,61.8,95.2,61.8L95.2,61.8z M98.5,58.3c-0.2-1.8-1.6-3.2-3.4-3.4c-1.7,0.2-3,1.7-3.1,3.4c0.2,1.7,1.5,3.1,3.2,3.3
	C97,61.6,98.4,60.1,98.5,58.3z"/>
<path d="M104.8,60c-0.1-1.8,1.3-3.3,3.1-3.4l0,0h0.4c1.8-0.1,3.4,1.2,3.5,3c0,0,0,0,0,0.1v0.5c0,2.3-1.1,3.4-3.5,3.5
	C106.1,63.8,104.8,62.3,104.8,60z M111.5,60.1c0.1-1.6-1.1-3-2.7-3.1c-0.1,0-0.2,0-0.2,0h-0.5c-1.6,0-2.8,1.3-2.8,2.8c0,0,0,0,0,0.1
	V60c-0.1,1.8,1.3,3.3,3.1,3.4l0,0c1.7,0.1,3.1-1.2,3.2-2.9C111.5,60.4,111.5,60.3,111.5,60.1L111.5,60.1z"/>
<path class="st3" d="M94.1,72.9c0-0.6,0.5-1.1,1.1-1.2h0.1c0.8,0,1.3,0.5,1.1,1.1c-0.2,0.5-0.6,1-1.1,1.2
	C94.7,74.3,94.1,73.9,94.1,72.9z"/>
<path class="st4" d="M107.9,140.1c0.4,0.7,0.9,1.3,1.4,1.9c0.8,0.6,2,0.6,2.8,0c0.4-0.2,0.4-1.1,0.4-1.8s-0.5-1.3-1.2-1.3l0,0
	l-1.6-0.1c1.1-0.7,2.5-0.4,3.3,0.5c0.7,1,0.5,2.3-0.4,3.1c-0.9,0.9-2.4,1.1-3.5,0.4C108.1,142.4,107.6,141.2,107.9,140.1z"/>
<path class="st4" d="M93.4,145.7c0.8,1.2,0.6,2-0.4,2.7c-0.5,0.5-1.4,0.4-1.8-0.1c0,0,0,0-0.1-0.1l-0.1-0.1c-0.5-0.6-0.4-1.5,0.1-2
	c0.1-0.1,0.2-0.1,0.2-0.2c0.1,0.8-0.6,2.1,0.8,2.2S93.1,146.7,93.4,145.7z"/>
<path class="st1" d="M93.7,120.6l-1.5,1.3c-0.5-0.5-1-0.9-1-1.2c0.2-0.6,0.5-1.1,0.9-1.6L93.7,120.6z"/>
<path class="st1" d="M109.1,112.6c-0.8,0.6-1.2,1.2-1.6,1.4c-0.1,0-1-0.9-0.9-1.2c0.3-0.6,0.7-1.2,1.2-1.6L109.1,112.6z"/>
<path class="st5" d="M100.9,161.1v-5.5c-1.7-0.3-2.4,1.5-1.8,4.8c-0.8-1-1-2.3-0.5-3.5c0.3-1.1,1.1-1.8,2.2-2c0.3,0,0.6,0.3,0.7,0.6
	c0.1,1.7,0.1,3.5,0,5.2c0,0.2-0.3,0.5-0.5,0.7L100.9,161.1z"/>
<path class="st5" d="M103.5,154.8l1.3,0.7c-1.7,1.7-0.8,3.8-1.1,5.6C103.1,159.1,103.5,157.1,103.5,154.8z"/>
<path class="st3" d="M105.5,156.6v3.4h-0.1c-0.1-1.1-0.1-2.3-0.2-3.4H105.5z"/>
<path class="st1" d="M93.3,97.3c1.3,1.5,2.4,3.2,3.1,5.1c0.1,0.2-0.4,0.7-0.6,0.7c-1.4,0.1-2.8,0.1-4.2,0.1c-0.2,0-0.6-0.5-0.5-0.7
	C91.7,100.9,92.5,99.2,93.3,97.3z"/>
<path class="st6" d="M98.5,58.3c-0.1,1.7-1.5,3.1-3.3,3.2c-1.9-0.1-3.3-1.7-3.1-3.6c0.1-1.7,1.4-3,3-3.1
	C96.9,55.1,98.3,56.5,98.5,58.3z"/>
<path class="st6" d="M111.5,60.1c0.1,1.7-1.1,3.1-2.8,3.3h-0.3c-1.8-0.1-3.2-1.6-3.1-3.4c-0.1-1.6,1.1-2.9,2.7-3h0.1
	c1.6-0.2,3.2,0.9,3.4,2.5c0,0,0,0,0,0.1L111.5,60.1z"/>
<rect x="96.5" y="129.2" transform="matrix(0.9565 -0.2917 0.2917 0.9565 -34.0293 34.5192)" class="st7" width="4.4" height="4.4"/>
<path class="st5" d="M92.5,15.2c-0.3,0.2-0.6,0.3-1,0.4h-8.7c-0.9,0-1.3-0.4-1.3-1.3V5.5c0-0.7,0.3-1.3,1-1.3c2.2-0.1,4.4-0.1,6.6,0
	c0.8,0.2,1.6,0.5,2.3,1l-0.3,0.4L90,5.3c-2.1-1.1-4.2-0.6-6.4-0.1c-1,0.2-1.7,1.2-1.6,2.2c0,2.1,0.1,4.1,0.2,6.2
	c0,0.9,0.7,1.2,1.5,1.2l7.8-0.1c0.2,0,0.5,0,0.7,0.1L92.5,15.2z"/>
<path class="st5" d="M92.9,6.2c0.2,0.3,0.4,0.5,0.4,0.8v7.1h-0.5L92.9,6.2z"/>
<path class="st8" d="M104.7,15.6h2.8c2.1,0,3.8,1.7,3.8,3.8l0,0c0,2.1-1.7,3.8-3.8,3.8h-2.8c-2.1,0-3.8-1.7-3.8-3.8l0,0
	C100.9,17.3,102.6,15.6,104.7,15.6z"/>
</svg>
